# xmcd
#
# Track frame offsets: 
#        150
#        15771
#        35346
#        48229
#        59318
#        90067
#
# Disc length: 1408 seconds
#
# Revision: 0
# Processed by: cddbd v1.5.2PL0 Copyright (c) Steve Scherf et al.
# Submitted via: ExactAudioCopy v0.95b4
#
DISCID=31057e06
DTITLE=Rude Mood - Live 2
DYEAR=2007
DGENRE=Blues
TTITLE0=Goin' away baby
TTITLE1=Natural born lover
TTITLE2=Too many cooks
TTITLE3=Do the do
TTITLE4=Pussycat moan
TTITLE5=Hard to handle
EXTD=
EXTT0=
EXTT1=
EXTT2=
EXTT3=
EXTT4=
EXTT5=
PLAYORDER=
